:SAMPLES-PER-SECOND 30
:FULLY-SPECIFIED
:DEGREES
265
root  -47.4022 39.0287 0.409982 171.199 -88.1285 -177.061
RightUpLeg  14.202 -7.55839 -0.187341
RightLeg  14.4471 6.7987 1.15155
RightFoot  -20.9601 -0.542744 -4.7701
RightToes  -1.16417e-010 0 -3.6325e-017
Spine  0.949058 2.46588 9.58061
Spine1  10.8714 4.98648 -8.21255
HEad  -14.3644 -3.34361 -1.89907
LeftShoulder1  -0.498417 4.77479 -33.0969
LeftArm  10.6455 15.4511 -39.2347
LeftForeArm  24.4391 -17.8126 -6.21319
LeftHand  -0.202503 10.7002 -2.99253
RightShoulder  -0.845213 -5.94918 27.9688
RightArm  24.5066 15.4132 52.2428
RightForeArm  11.0759 16.3293 6.27737
RightHand  0.016994 4.30532 -0.0777805
LeftUpLeg  -17.9158 1.7823 -0.530847
LeftLeg  3.60751 2.13492 -0.163038
LeftFoot  1.71158 0.292082 -2.72589
LeftToes  3.13772e-010 -3.14513e-011 3.96022e-013
266
root  -48.6685 38.8838 0.475671 -173.792 -86.3186 167.927
RightUpLeg  16.0819 -6.39015 -1.30413
RightLeg  14.6324 7.58238 0.855416
RightFoot  -22.1662 -0.486191 -3.54362
RightToes  -1.16417e-010 0 -3.6325e-017
Spine  0.297021 2.92746 8.16303
Spine1  11.2373 5.55059 -8.44153
HEad  -13.9284 -2.99205 -1.71066
LeftShoulder1  -0.630601 5.09527 -33.3684
LeftArm  12.1527 14.2295 -38.7493
LeftForeArm  22.5065 -18.3608 -6.01879
LeftHand  -0.162582 10.3294 -2.3828
RightShoulder  -0.832864 -5.89108 28.2815
RightArm  23.7236 12.2805 52.3678
RightForeArm  12.5091 14.9197 6.88436
RightHand  0.0236192 4.31557 -0.00797326
LeftUpLeg  -18.3075 2.14381 -1.45759
LeftLeg  7.48391 3.59169 0.254404
LeftFoot  6.4185 -0.281932 1.44734
LeftToes  3.13772e-010 -3.14513e-011 3.96022e-013
267
root  -49.9815 38.7697 0.570433 -163.935 -84.4241 157.811
RightUpLeg  17.5773 -3.86283 -2.67151
RightLeg  16.0609 6.90642 0.751125
RightFoot  -22.8214 -0.325922 -1.72241
RightToes  -1.16417e-010 0 -3.6325e-017
Spine  0.0802079 3.20534 5.53206
Spine1  10.8391 5.54738 -7.43843
HEad  -13.8582 -1.99174 -2.20232
LeftShoulder1  -0.837004 5.54339 -34.8818
LeftArm  12.7425 12.8458 -37.3298
LeftForeArm  21.5527 -18.4532 -6.0361
LeftHand  -0.183329 10.3867 -2.81658
RightShoulder  -0.7929 -5.76818 28.3659
RightArm  22.1863 8.89649 52.4818
RightForeArm  15.9294 12.5101 7.81296
RightHand  -0.0335701 3.64874 -0.67564
LeftUpLeg  -17.8942 2.89923 -2.78448
LeftLeg  10.1505 4.00586 0.476514
LeftFoot  11.5101 -0.877122 4.07655
LeftToes  3.13772e-010 -3.14513e-011 3.96022e-013
268
root  -51.2515 38.7228 0.617171 -150.344 -83.3938 143.989
RightUpLeg  18.2914 -0.575226 -4.02
RightLeg  18.9102 4.51177 1.08944
RightFoot  -22.8357 0.0285696 1.80991
RightToes  -1.16417e-010 0 -3.6325e-017
Spine  -0.106005 2.90056 2.48123
Spine1  10.6385 5.22415 -7.40765
HEad  -13.862 -1.35783 -2.04419
LeftShoulder1  -0.803626 5.48195 -34.4296
LeftArm  9.18985 10.8525 -37.4552
LeftForeArm  24.0116 -16.2906 -7.12673
LeftHand  -0.151269 10.676 -1.94916
RightShoulder  -0.961117 -6.14987 29.7582
RightArm  19.9209 5.84747 52.1406
RightForeArm  20.825 9.75363 8.51267
RightHand  0.0389683 2.89969 0.321369
LeftUpLeg  -18.2527 4.09659 -5.21709
LeftLeg  15.2464 3.22935 1.0782
LeftFoot  8.06623 -0.929692 5.14779
LeftToes  3.13772e-010 -3.14513e-011 3.96022e-013
269
root  -52.3753 38.7573 0.703679 -141.745 -82.6206 135.328
RightUpLeg  17.3275 0.983549 -5.60745
RightLeg  24.0823 4.11226 1.86688
RightFoot  -21.0357 0.427982 6.8654
RightToes  -1.16417e-010 0 -3.6325e-017
Spine  0.403947 2.46744 0.0948123
Spine1  9.70213 4.66319 -7.79887
HEad  -13.2197 -1.39584 -2.18574
LeftShoulder1  -0.724174 5.31197 -33.8862
LeftArm  4.14285 8.29604 -37.7052
LeftForeArm  29.5392 -12.5592 -8.63289
LeftHand  -0.149286 10.3439 -2.07707
RightShoulder  -1.02754 -6.30026 30.1844
RightArm  18.0745 1.62261 52.0284
RightForeArm  24.7189 7.68517 8.68766
RightHand  0.066568 1.55888 0.973959
LeftUpLeg  -17.4637 5.2047 -7.01274
LeftLeg  17.3166 2.39023 1.02917
LeftFoot  5.69993 -0.950075 6.09276
LeftToes  3.13772e-010 -3.14513e-011 3.96022e-013
